# xmcd
#
# Track frame offsets: 
#        150
#        674
#        19521
#        35949
#        50727
#        71867
#        89547
#        106455
#        123820
#        141860
#        156481
#        171867
#        190870
#        209421
#        222661
#        239729
#        258021
#        269703
#        286427
#        302977
#        319959
#
# Disc length: 4439 seconds
#
# Revision: 0
# Processed by: cddbd v1.5.2PL0 Copyright (c) Steve Scherf et al.
# Submitted via: ExactAudioCopy v0.99pb4
#
DISCID=52115515
DTITLE=Various Artist - prevue promo 1071A-3
DYEAR=2001
DGENRE=pop
TTITLE0=blank - data
TTITLE1=Babyface - What If(Pop Mix)
TTITLE2=Kirsty MacColl - In These Shoes?
TTITLE3=Pete Yorn - For Nancy ('Cos It Already Is)
TTITLE4=Jagged Edge - Goodbye(Pop Mix)
TTITLE5=Mandy Moore - Crush
TTITLE6=Toya (Toya Rodriguez) - I Do(Video Edit)
TTITLE7=702 - Pootie Tangin'(Movie "Pootie Tang")
TTITLE8=Outkast feat.  Snoop Dog and Sleepy Brown - So Fresh, So Clean(L
TTITLE8=yrics!! - Stankonia Remix)
TTITLE9=112 - Peaches and Cream(Remix - Without Rap)
TTITLE10=Basement Jaxx - Romeo
TTITLE11=Nelly - Batter Up(Clean Edit with Mutes - Real Name =Cornell
TTITLE11=Haynes Jr)
TTITLE12=Usher - U Remind Me
TTITLE13=Voodoo and Serano - Blood Is Pumpin'(Instrumental)
TTITLE14=Dave Hole - You Move Me So
TTITLE15=Pierce Pettis - State Of Grace
TTITLE16=Duncan Sheik - Mr. Chess
TTITLE17=Nickelback - How You Remind Me
TTITLE18=Breaking Point - Coming Of Age
TTITLE19=Stone Gossard feat. Ty Wilman - Unhand Me
TTITLE20=Soil - Halo(Edit # 2)
EXTD=
EXTT0=
EXTT1=
EXTT2=
EXTT3=
EXTT4=
EXTT5=
EXTT6=
EXTT7=
EXTT8=
EXTT9=
EXTT10=
EXTT11=
EXTT12=
EXTT13=
EXTT14=
EXTT15=
EXTT16=
EXTT17=
EXTT18=
EXTT19=
EXTT20=
PLAYORDER=
